# AST/ASF file generated using VICON BodyLanguage
# -----------------------------------------------
:version 1.10
:name VICON
:units
  mass 1.0
  length 0.45
  angle deg
:documentation
   .ast/.asf automatically generated from VICON data using
   VICON BodyBuilder and BodyLanguage model FoxedUp or BRILLIANT.MOD
:root
   order TX TY TZ RX RY RZ
   axis XYZ
   position 0 0 0  
   orientation 0 -0 0 
:bonedata
  begin
     id 1 
     name lhipjoint
     direction 0.432694 -0.693742 0.575759 
     length 2.19277 
     axis 0 -0 0  XYZ
  end
  begin
     id 2 
     name lfemur
     direction 0.34202 -0.939693 0  
     length 6.69022  
     axis 0 -0 20  XYZ
    dof rx ry rz
    limits (-160.0 20.0)
           (-70.0 70.0)
           (-60.0 70.0)
  end
  begin
     id 3 
     name ltibia
     direction 0.34202 -0.939693 0   
     length 6.50337   
     axis 0 -0 20   XYZ
    dof rx
    limits (-10.0 170.0)
  end
  begin
     id 4 
     name lfoot
     direction 0.158999 -0.435969 0.885805   
     length 2.70564   
     axis -90 -1.13533e-015 20   XYZ
    dof rx rz
    limits (-45.0 90.0)
           (-70.0 20.0)
  end
  begin
     id 5 
     name ltoes
     direction -0.00592919 0.00964381 0.999936   
     length 1.29929   
     axis -90 -1.13533e-015 20   XYZ
    dof rx
    limits (-90.0 20.0)
  end
  begin
     id 6 
     name rhipjoint
     direction -0.414359 -0.700339 0.581234   
     length 2.17212  
     axis 0 -0 0  XYZ 
  end
  begin
     id 7 
     name rfemur
     direction -0.34202 -0.939693 0   
     length 7.17659   
     axis 0 -0 -20   XYZ
    dof rx ry rz
    limits (-160.0 20.0)
           (-70.0 70.0)
           (-70.0 60.0)
  end
  begin
     id 8 
     name rtibia
     direction -0.34202 -0.939693 0   
     length 6.36669   
     axis 0 -0 -20   XYZ
    dof rx
    limits (-10.0 170.0)
 end
 begin
     id 9 
     name rfoot
     direction -0.137064 -0.37658 0.916188   
     length 2.22351  
     axis -90 1.13533e-015 -20   XYZ
    dof rx rz
    limits (-45.0 90.0)
           (-20.0 70.0)
  end
  begin
     id 10 
     name rtoes
     direction -0.000784077 -0.00289101 0.999996   
     length 1.09522   
     axis -90 1.13533e-015 -20   XYZ
    dof rx
    limits (-90.0 20.0)
  end
  begin
     id 11 
     name lowerback
     direction -0.0176242 0.984912 -0.172157   
     length 1.65301   
     axis 0 -0 0   XYZ
    dof rx ry rz
    limits (-20.0 45.0)
           (-30.0 30.0)
           (-30.0 30.0)
  end
  begin
     id 12 
     name upperback
     direction -0.00218128 0.998776 -0.0494072   
     length 1.67776   
     axis 0 -0 0   XYZ
    dof rx ry rz
    limits (-20.0 45.0)
           (-30.0 30.0)
           (-30.0 30.0)
  end
  begin
     id 13 
     name thorax
     direction 0.00544186 0.999658 0.0255711   
     length 1.72293   
     axis 0 -0 0   XYZ
    dof rx ry rz
    limits (-20.0 45.0)
           (-30.0 30.0)
           (-30.0 30.0)
  end
  begin
     id 14 
     name lowerneck
     direction -0.105325 0.983841 0.144785   
     length 2.14226   
     axis 0 -0 0   XYZ
    dof rx ry rz
    limits (-20.0 45.0)
           (-30.0 30.0)
           (-30.0 30.0)
  end
  begin
     id 15 
     name upperneck
     direction 0.0547957 0.988053 -0.144041   
     length 2.17508   
     axis 0 -0 0   XYZ
    dof rx ry rz
    limits (-20.0 45.0)
           (-30.0 30.0)
           (-30.0 30.0)
  end
  begin
     id 16
     name head
     direction 0.0247488 0.997534 -0.0656813  
     length 2.20048  
     axis 0 -0 0   XYZ
    dof rx ry rz
    limits (-20.0 45.0)
           (-30.0 30.0)
           (-30.0 30.0)
  end
  begin
     id 17 
     name lclavicle
     direction 0.820559 0.567247 -0.0701026  
     length 4.09615  
     axis 0 -0 0   XYZ
    dof ry rz
    limits (-20.0 10.0)
           (0.0 20.0)
  end
  begin
     id 18 
     name lhumerus
     direction 0.999977 -0.0067566 -9.96392e-005   
     length 4.59333   
     axis -180 -30 -90   XYZ
    dof rx ry rz
    limits (-60.0 90.0)
           (-90.0 90.0)
           (-90.0 90.0)
  end
  begin
     id 19
     name lradius
     direction 1 -4.48982e-011 -2.53425e-027   
     length 2.81151   
     axis -180 -30 -90   XYZ
    dof rx
    limits (-10.0 170.0)
  end
  begin
     id 20
     name lwrist
     direction 1 -4.48939e-011 -7.39254e-028   
     length 1.40576   
     axis 2.56395e-016 90 90   XYZ
    dof ry
    limits (-180.0 0.0)
 end
  begin
     id 21 
     name lhand
     direction 1 -4.48939e-011 -1.47851e-027   
     length 0.895651   
     axis 9.43423e-016 90 90   XYZ
    dof rx rz
    limits (-90.0 90.0)
           (-45.0 45.0)
  end
  begin
     id 22 
     name lfingers
     direction 1 -4.48978e-011 -2.95702e-027   
     length 0.722097   
     axis 1.88685e-015 90 90   XYZ
    dof rx
    limits (0.0 90.0)
  end
  begin
     id 23
     name lthumb
     direction 0.707107 -6.34931e-011 0.707107   
     length 1.03679   
     axis -90 45 -9.86935e-015   XYZ
    dof rx rz
    limits (-45.0 45.0)
           (-45.0 45.0)
  end
  begin
     id 24 
     name rclavicle
     direction -0.831414 0.553102 -0.0531864   
     length 4.24872  
     axis 0 -0 0   XYZ 
    dof ry rz
    limits (-10.0 20.0)
           (-20.0 0.0)
  end
  begin
     id 25 
     name rhumerus
     direction -0.999916 -0.000939607 0.0129331  
     length 4.74834   
     axis -180 30 90   XYZ
    dof rx ry rz
    limits (-90.0 60.0)
           (-90.0 90.0)
           (-90.0 90.0)
  end
  begin
     id 26 
     name rradius
     direction -1 -4.48956e-011 -1.31752e-027   
     length 2.79907   
     axis -180 30 90   XYZ
    dof rx
    limits (-10.0 170.0)
  end
  begin
     id 27 
     name rwrist
     direction -1 -4.4897e-011 -7.39254e-028   
     length 1.39954   
     axis 2.56395e-016 -90 -90   XYZ
    dof ry
    limits (-180.0 0.0)
  end
  begin
     id 28
     name rhand
     direction -0.999997 -0.00250697 0.000800838   
     length 0.953304   
     axis 9.43423e-016 -90 -90   XYZ
    dof rx rz
    limits (-90.0 90.0)
           (-45.0 45.0)
  end
  begin
     id 29
     name rfingers
     direction -1 -4.48954e-011 -2.95702e-027   
     length 0.763342   
     axis 1.88685e-015 -90 -90   XYZ
    dof rx
    limits (0.0 90.0)
  end
  begin
     id 30
     name rthumb
     direction -0.709701 -0.00217037 0.7045   
     length 1.10115   
     axis -90 -45 9.86935e-015   XYZ
    dof rx rz
    limits (-45.0 45.0)
           (-45.0 45.0)
  end
:hierarchy
  begin
    root lhipjoint rhipjoint lowerback
    lhipjoint lfemur
    lfemur ltibia
    ltibia lfoot
    lfoot ltoes
    rhipjoint rfemur
    rfemur rtibia
    rtibia rfoot
    rfoot rtoes
    lowerback upperback
    upperback thorax
    thorax lowerneck lclavicle rclavicle
    lowerneck upperneck
    upperneck head
    lclavicle lhumerus
    lhumerus lradius
    lradius lwrist
    lwrist lhand lthumb
    lhand lfingers
    rclavicle rhumerus
    rhumerus rradius
    rradius rwrist
    rwrist rhand rthumb
    rhand rfingers
  end

#!OML:ASF G:\ViconDB\ViconDB\414\test\team2\shane.ASF
:FULLY-SPECIFIED
:DEGREES
17
root 6.7611 26.5714 -15.5097 0.153918 -10.2264 -6.11358
lowerback 22.0876 4.69131 17.2815
upperback 5.46826 10.307 7.02217
thorax -4.43876 4.87028 -4.31878
lowerneck -20.5011 -9.98524 -2.42691
upperneck 24.6867 -18.0628 15.292
head 13.6272 -6.16725 2.98418
rclavicle -3.81667e-014 -3.81667e-014
rhumerus 12.6512 30.2482 -81.8658
rradius 47.5335
rwrist 30.2181
rhand -45.9997 -34.7005
rfingers 7.12502
rthumb -18.7454 -63.8172
lclavicle -3.57812e-014 8.90555e-014
lhumerus 57.705 67.7884 72.2872
lradius 105.498
lwrist 3.38888
lhand -60.4986 20.0549
lfingers 7.12502
lthumb -32.6264 47.1332
rfemur -24.0056 -10.639 -1.84774
rtibia 43.0259
rfoot -3.31529 -22.0034
rtoes 2.39438
lfemur -3.3089 22.0767 -14.8328
ltibia 17.5783
lfoot 2.45409 -33.6396
ltoes -13.1484
18
root 6.72017 26.672 -15.5839 -0.575381 -12.7554 -4.49313
lowerback 22.8191 4.80759 13.3167
upperback 7.14412 9.44229 6.66242
thorax -3.70929 4.58431 -2.48599
lowerneck -21.75 -8.99623 -1.08562
upperneck 25.2339 -16.9083 14.2774
head 13.7296 -5.58061 2.58174
rclavicle -3.81667e-014 -3.81667e-014
rhumerus 12.6512 30.2482 -81.8658
rradius 47.5335
rwrist 30.2181
rhand -45.9997 -34.7005
rfingers 7.12502
rthumb -18.7454 -63.8172
lclavicle 4.69132e-014 1.59028e-014
lhumerus 20.2367 73.3862 10.0471
lradius 55.534
lwrist 29.5455
lhand -62.9636 6.11715
lfingers 7.12502
lthumb -34.9684 32.6806
rfemur -29.3388 -16.1394 -0.701383
rtibia 46.552
rfoot -3.19453 -18.2215
rtoes 0.29464
lfemur -1.53368 19.8932 -13.7883
ltibia 15.6475
lfoot 3.26445 -29.9718
ltoes -12.6092
19
root 6.68682 26.7414 -15.6619 -1.20518 -14.6228 -2.22721
lowerback 23.2865 5.07262 8.82634
upperback 8.36885 8.68732 6.07972
thorax -3.31262 4.24675 -0.558192
lowerneck -22.2709 -8.01364 -0.475448
upperneck 25.5775 -15.7162 14.0286
head 13.7854 -5.00318 2.62084
rclavicle -8.90555e-014 -1.90833e-014
rhumerus 21.5642 35.0612 -84.8056
rradius 50.3127
rwrist 28.9815
rhand -45.3056 -33.6571
rfingers 7.12502
rthumb -18.0777 -62.837
lclavicle -8.90555e-014 -1.90833e-014
lhumerus 63.8976 54.7984 68.2548
lradius 80.8371
lwrist 6.05385
lhand -55.651 11.2011
lfingers 7.12502
lthumb -28.0027 39.132
rfemur -35.1145 -21.3484 0.578625
rtibia 50.1235
rfoot -2.93401 -13.0924
rtoes -1.40528
lfemur -1.1108 17.8443 -13.4965
ltibia 15.8599
lfoot 3.9604 -26.8319
ltoes -11.7198
20
root 6.67307 26.7941 -15.7253 -1.96723 -16.2514 -1.51884
lowerback 24.2184 5.11297 6.10474
upperback 9.27022 8.12455 5.94277
thorax -3.19961 3.94439 0.862616
lowerneck -22.2433 -6.99187 -0.49435
upperneck 26.0692 -14.2384 13.7566
head 13.8149 -4.38772 2.82833
rclavicle -8.90555e-014 -1.90833e-014
rhumerus 21.5642 35.0612 -84.8056
rradius 50.3127
rwrist 28.9815
rhand -45.3056 -33.6571
rfingers 7.12502
rthumb -18.0777 -62.837
lclavicle -5.56597e-014 2.22639e-014
lhumerus 10.1412 47.3851 -2.06349
lradius 53.7131
lwrist 42.259
lhand -54.7972 -5.04655
lfingers 7.12502
lthumb -27.1862 23.0149
rfemur -40.0923 -25.0562 3.56794
rtibia 53.4564
rfoot -2.11172 -7.63583
rtoes -6.29891
lfemur -1.20004 16.4669 -11.423
ltibia 18.3028
lfoot 4.71047 -24.4335
ltoes -9.40893
21
root 6.66673 26.8223 -15.7677 -2.31574 -17.461 -1.06192
lowerback 23.3403 3.67556 1.32992
upperback 10.7409 5.00427 4.17886
thorax -1.46589 2.35506 2.53238
lowerneck -23.8027 -2.49308 6.90878
upperneck 28.1147 -10.0131 10.546
head 14.0374 -2.05797 1.17829
rclavicle -8.90555e-014 -1.90833e-014
rhumerus 21.5642 35.0612 -84.8056
rradius 50.3127
rwrist 28.9815
rhand -45.3056 -33.6571
rfingers 7.12502
rthumb -18.0777 -62.837
lclavicle -7.31528e-014 -4.13472e-014
lhumerus 2.26517 31.5576 -14.0161
lradius 53.9004
lwrist 42.8388
lhand -47.8495 -6.3375
lfingers 7.12502
lthumb -20.5238 22.5976
rfemur -44.6438 -26.8117 6.14877
rtibia 56.507
rfoot -0.406068 -2.57742
rtoes -11.5033
lfemur -2.41748 15.2885 -9.27047
ltibia 22.0502
lfoot 5.49298 -22.495
ltoes -6.02514
22
root 6.6484 26.8203 -15.7939 -2.32502 -18.2224 -1.08775
lowerback 24.0547 4.5393 2.888
upperback 10.5035 6.53466 5.6405
thorax -2.12722 3.11555 2.79459
lowerneck -21.9569 -4.56387 -1.27441
upperneck 28.1355 -10.4232 12.6954
head 14.2064 -2.89569 3.36333
rclavicle -8.90555e-014 -1.90833e-014
rhumerus 21.5642 35.0612 -84.8056
rradius 50.3127
rwrist 28.9815
rhand -45.3056 -33.6571
rfingers 7.12502
rthumb -18.0777 -62.837
lclavicle -6.36111e-014 -3.65764e-014
lhumerus 6.14591 17.0916 -8.48859
lradius 50.158
lwrist 16.8946
lhand 0.830702 14.6163
lfingers 7.12502
lthumb 26.3858 42.8003
rfemur -48.4848 -27.0909 8.28328
rtibia 59.1637
rfoot 1.71547 2.28368
rtoes -14.0744
lfemur -4.10872 13.9115 -6.65642
ltibia 26.0991
lfoot 5.89078 -20.2636
ltoes -2.58397
23
root 6.62986 26.8034 -15.8134 -2.08935 -18.3241 -1.55424
lowerback 23.4633 3.97589 2.36553
upperback 11.1391 5.60515 5.27928
thorax -1.12016 2.65121 2.99965
lowerneck -22.6945 -3.33728 -0.626503
upperneck 29.4494 -8.78702 11.7597
head 14.687 -2.173 3.2347
rclavicle -8.90555e-014 -1.90833e-014
rhumerus 21.5642 35.0612 -84.8056
rradius 50.3127
rwrist 28.9815
rhand -45.3056 -33.6571
rfingers 7.12502
rthumb -18.0777 -62.837
lclavicle -6.83819e-014 -3.49861e-014
lhumerus 6.25967 5.23652 -11.3713
lradius 51.5205
lwrist -7.60163
lhand 7.0089 12.4735
lfingers 7.12502
lthumb 32.2842 39.622
rfemur -51.5958 -27.105 10.1715
rtibia 61.3085
rfoot 4.10927 7.71307
rtoes -15.6022
lfemur -5.80296 13.1763 -3.56846
ltibia 29.3664
lfoot 5.26949 -18.3266
ltoes -1.23159
24
root 6.61293 26.7816 -15.8086 -1.84614 -17.5712 -1.68705
lowerback 22.9911 3.20519 1.39432
upperback 11.3345 4.38566 5.01836
thorax -0.67618 2.0182 3.58903
lowerneck -22.8645 -2.26767 -0.441804
upperneck 30.8628 -7.26571 11.0861
head 15.177 -1.55046 3.28318
rclavicle -8.90555e-014 -1.90833e-014
rhumerus 21.5642 35.0612 -84.8056
rradius 50.3127
rwrist 28.9815
rhand -45.3056 -33.6571
rfingers 7.12502
rthumb -18.0777 -62.837
lclavicle -2.8625e-014 0
lhumerus 8.47238 0.383432 -12.832
lradius 66.0402
lwrist 132.319
lhand -39.6634 -7.10629
lfingers 7.12502
lthumb -12.6432 22.491
rfemur -53.8105 -27.6799 11.0714
rtibia 63.1015
rfoot 5.03898 13.036
rtoes -18.5862
lfemur -7.78685 12.7048 -1.02968
ltibia 32.1255
lfoot 3.51306 -16.1737
ltoes -3.58387
25
root 6.59572 26.8517 -15.8073 -1.40035 -15.5433 -1.9266
lowerback 22.8719 2.23456 0.443424
upperback 11.0038 2.99583 5.36674
thorax -0.961437 1.29145 4.83324
lowerneck -22.1009 -1.72474 -1.75666
upperneck 31.9319 -6.05666 11.0747
head 15.4211 -1.20668 3.8011
rclavicle -8.90555e-014 -1.90833e-014
rhumerus 21.5642 35.0612 -84.8056
rradius 50.3127
rwrist 28.9815
rhand -45.3056 -33.6571
rfingers 7.12502
rthumb -18.0777 -62.837
lclavicle 7.95139e-015 -4.45278e-014
lhumerus 11.8377 -13.2903 -13.3506
lradius 65.7853
lwrist 121.357
lhand -32.9944 -12.6772
lfingers 7.12502
lthumb -6.20876 17.2118
rfemur -54.3711 -28.8587 11.2463
rtibia 64.0902
rfoot 4.44585 16.5953
rtoes -20.8464
lfemur -10.3196 12.4616 1.24363
ltibia 34.1362
lfoot 2.05076 -13.8923
ltoes -4.51201
26
root 6.56947 26.8383 -15.7635 -0.794746 -12.9811 -2.04512
lowerback 22.4332 1.35551 -0.798863
upperback 10.5183 1.68498 6.02887
thorax -1.20407 0.597969 6.59093
lowerneck -20.9042 -1.38208 -3.46441
upperneck 32.8945 -4.98472 11.0823
head 15.5192 -0.99482 4.36319
rclavicle -7.15625e-015 0
rhumerus 44.6059 36.8565 -55.446
rradius 80.8363
rwrist 24.5183
rhand -42.4272 -32.3511
rfingers 7.12502
rthumb -15.3067 -61.7647
lclavicle 7.95139e-015 -4.45278e-014
lhumerus 11.8377 -13.2903 -13.3506
lradius 65.7853
lwrist 121.357
lhand -32.9944 -12.6772
lfingers 7.12502
lthumb -6.20876 17.2118
rfemur -54.6306 -30.6054 10.9307
rtibia 64.8283
rfoot 2.65711 18.8716
rtoes -22.8806
lfemur -13.4031 12.9524 3.13559
ltibia 35.9358
lfoot 0.571524 -11.3993
ltoes -3.19732
27
root 6.56347 26.8211 -15.6839 -0.445789 -10.7058 -2.19724
lowerback 21.8219 0.730141 -1.08505
upperback 10.0955 0.868638 6.44848
thorax -1.26416 0.189911 7.41078
lowerneck -19.8884 -1.22869 -3.96943
upperneck 34.3152 -4.34824 10.0972
head 15.8587 -0.941794 4.21839
rclavicle 1.82882e-014 3.02153e-014
rhumerus 44.6059 36.8565 -55.446
rradius 80.8363
rwrist 24.5183
rhand -42.4272 -32.3511
rfingers 7.12502
rthumb -15.3067 -61.7647
lclavicle 7.95139e-015 -4.45278e-014
lhumerus 11.8377 -13.2903 -13.3506
lradius 65.7853
lwrist 121.357
lhand -32.9944 -12.6772
lfingers 7.12502
lthumb -6.20876 17.2118
rfemur -53.6572 -32.1169 10.0789
rtibia 64.8816
rfoot 0.605579 19.7226
rtoes -25.1966
lfemur -16.2123 14.542 4.58685
ltibia 37.5573
lfoot -1.39078 -8.48766
ltoes -2.0093
